<svg width="145" height="130" viewBox="0 0 145 130" fill="none" xmlns="http://www.w3.org/2000/svg">
<g clip-path="url(#clip0_260_160)">
<path d="M143.9 70.3999H1V77.8999H143.9V70.3999Z" fill="url(#paint0_linear_260_160)"/>
<path d="M144.902 70.3999H0.101562V73.8999H144.902V70.3999Z" fill="#9AAA97"/>
<path d="M42.1016 70.4001H33.0016C29.8016 70.4001 27.1016 67.8001 27.1016 64.5001C27.1016 64.0001 27.2016 63.6001 27.3016 63.2001L33.8016 35.6001L34.9016 35.9001L28.4016 63.5001C27.8016 66.0001 29.4016 68.6001 31.9016 69.1001C32.3016 69.2001 32.6016 69.2001 33.0016 69.2001H42.1016V70.4001Z" fill="url(#paint1_linear_260_160)"/>
<path d="M54.3997 69.1999H45.2997C42.6997 69.1999 40.5997 67.1 40.5997 64.5C40.5997 64.1 40.5997 63.8 40.6997 63.4L47.1997 35.7H34.8997L28.3997 63.2999C27.7997 65.7999 29.3997 68.4 31.8997 68.9C32.2997 69 32.5997 69 32.9997 69L54.3997 69.1999Z" fill="url(#paint2_linear_260_160)"/>
<path d="M54.4016 69.2H42.1016V70.4H54.4016V69.2Z" fill="url(#paint3_linear_260_160)"/>
<path d="M2.30312 0H74.7031C75.8031 0 76.8031 0.9 76.8031 2.1V52.7C76.8031 53.8 75.9031 54.8 74.7031 54.8H2.30312C1.20312 54.8 0.203125 53.9 0.203125 52.7V2.1C0.203125 0.9 1.20312 0 2.30312 0Z" fill="url(#paint4_linear_260_160)"/>
<path d="M4.6 0H77C78.1 0 79 0.9 79 2.1V52.7C79 53.8 78.1 54.8 76.9 54.8H4.6C3.5 54.8 2.5 53.9 2.5 52.7V2.1C2.5 0.9 3.4 0 4.6 0Z" fill="url(#paint5_linear_260_160)"/>
<path d="M76.4031 2.69995H4.70312V52.0999H76.4031V2.69995Z" fill="#13544E"/>
<path d="M6.10313 4.39995H76.3031V2.69995H4.70312V52.0999H6.10313V4.39995Z" fill="#0D3A35"/>
<path d="M76.7969 2.69995H75.7969V52.0999H76.7969V2.69995Z" fill="url(#paint6_linear_260_160)"/>
<path d="M118.698 31H109.398V70.4H118.698V31Z" fill="#13544E"/>
<path d="M109.902 31H104.602V70.4H109.902V31Z" fill="url(#paint7_linear_260_160)"/>
<path d="M112.697 70.4H111.797L112.297 31H112.697V70.4Z" fill="#092622"/>
<path d="M106.898 66.3H107.598C107.898 66.3 108.098 66.5 108.098 66.8C108.098 67.1 107.898 67.3 107.598 67.3H106.898C106.598 67.3 106.398 67.1 106.398 66.8C106.498 66.5 106.698 66.3 106.898 66.3Z" fill="black" stroke="black" stroke-width="0.231" stroke-linejoin="round"/>
<path d="M130.197 27.5H120.797V70.4H130.197V27.5Z" fill="#13544E"/>
<path d="M121.503 27.5H112.703V70.4H121.503V27.5Z" fill="url(#paint8_linear_260_160)"/>
<path d="M130.5 70.4001H124L124.1 36.8L130.5 35.8V70.4001Z" fill="#092622"/>
<path d="M141.2 70.4001H131.1L127 35.8H135.8L141.2 70.4001Z" fill="#13544E"/>
<path d="M127.002 35.8L124.102 36.8L129.502 70.4001H132.402L127.002 35.8Z" fill="url(#paint9_linear_260_160)"/>
<path d="M88.7 70.3C77.6 65.5 65.8 62.5 53.7 61.4L52.1 61.3C49 61 46.3 63.3 46 66.4V66.9C46 69.8 48.2 72.3 51.1 72.5H51.4C62.5 73.5 73.5 76 84 79.9H84.1" fill="url(#paint10_radial_260_160)"/>
<path d="M77.5016 89.3999L52.1016 84.5999C49.2016 83.9999 47.1016 81.4999 47.1016 78.5999C47.1016 75.1999 49.8016 72.4999 53.2016 72.3999H53.5016C60.2016 72.6999 66.9016 73.5999 73.5016 75.0999L84.1016 77.4999" fill="url(#paint11_radial_260_160)"/>
<path d="M80.1019 105L78.1019 103.7C70.9019 99.0001 62.7019 96.0001 54.1019 94.8001C51.4019 94.4001 49.5019 92.0001 49.7019 89.3001C49.9019 86.5001 52.4019 84.5001 55.2019 84.7001H55.3019C58.9019 85.1001 62.4019 85.6 65.9019 86.2L77.8019 88.3001" fill="url(#paint12_radial_260_160)"/>
<path d="M96.8031 55.7C87.4031 51.7 77.3031 49.4 67.1031 49L56.6031 48.6C52.9031 48.5 49.8031 51.3 49.7031 55V55.4C49.8031 58.7 52.3031 61.5 55.6031 61.8L60.1031 62.3C71.9031 63.7 83.4031 67 94.2031 72" fill="url(#paint13_radial_260_160)"/>
<path d="M93.1031 110.3H57.4031C55.4031 110.3 53.7031 108.6 53.7031 106.6V36.0999C53.7031 34.0999 55.4031 32.3999 57.4031 32.3999H93.1031C95.1031 32.3999 96.8031 34.0999 96.8031 36.0999V106.6C96.8031 108.7 95.1031 110.3 93.1031 110.3Z" fill="url(#paint14_linear_260_160)"/>
<path d="M96.8031 39.5H53.7031V99.7H96.8031V39.5Z" fill="url(#paint15_linear_260_160)"/>
<path d="M63.9984 75.5H86.2984C87.9984 75.5 89.3984 76.9 89.3984 78.6V81.5C89.3984 83.2 87.9984 84.6 86.2984 84.6H63.9984C62.2984 84.6 60.8984 83.2 60.8984 81.5V78.6C60.9984 76.8 62.3984 75.5 63.9984 75.5Z" fill="#14A800"/>
<path d="M60.7 50.3H89.7C90.1 50.3 90.4 50.6 90.4 51V51.2001C90.4 51.6001 90.1 51.9001 89.7 51.9001H60.7C60.3 51.9001 60 51.6001 60 51.2001V51C60 50.6 60.3 50.3 60.7 50.3ZM60.7 58.5H89.7C90.1 58.5 90.4 58.8001 90.4 59.2001V59.4001C90.4 59.8001 90.1 60.1 89.7 60.1H60.7C60.3 60.1 60 59.8001 60 59.4001V59.2001C60 58.8001 60.3 58.5 60.7 58.5ZM60.7 66.7H89.7C90.1 66.7 90.4 67.0001 90.4 67.4001V67.6C90.4 68 90.1 68.3001 89.7 68.3001H60.7C60.3 68.3001 60 68 60 67.6V67.4001C60 67.1001 60.3 66.7 60.7 66.7Z" fill="#95DF00"/>
<path d="M96.7977 89.0999V55.7C98.7977 56.5 100.698 57.4 102.598 58.4C117.998 66.4 128.298 81.6 129.898 98.9L130.298 103.6C131.598 117.7 120.498 129.9 106.398 129.9C100.198 129.9 94.2977 127.5 89.7977 123.2C82.3069 115.997 75.6026 108.019 69.7977 99.4L64.5977 91.6999C62.2977 88.2999 62.3977 83.9 64.6977 80.5C67.6977 76.1 73.5977 74.7999 78.0977 77.5999L96.7977 89.0999Z" fill="url(#paint16_radial_260_160)"/>
<path d="M96.7969 74.3V89L101.197 91.7L107.097 95.3V84.6C107.097 78.9 102.397 74.3 96.7969 74.3Z" fill="url(#paint17_radial_260_160)"/>
<g opacity="0.5">
<path d="M73.3969 92.9C76.7658 92.9 79.4969 90.1689 79.4969 86.8C79.4969 83.431 76.7658 80.7 73.3969 80.7C70.0279 80.7 67.2969 83.431 67.2969 86.8C67.2969 90.1689 70.0279 92.9 73.3969 92.9Z" fill="url(#paint18_radial_260_160)"/>
</g>
<path d="M73.3969 92.9C76.7658 92.9 79.4969 90.1689 79.4969 86.8C79.4969 83.431 76.7658 80.7 73.3969 80.7C70.0279 80.7 67.2969 83.431 67.2969 86.8C67.2969 90.1689 70.0279 92.9 73.3969 92.9Z" fill="url(#paint19_radial_260_160)"/>
<path d="M73.3969 92.9C76.7658 92.9 79.4969 90.1689 79.4969 86.8C79.4969 83.431 76.7658 80.7 73.3969 80.7C70.0279 80.7 67.2969 83.431 67.2969 86.8C67.2969 90.1689 70.0279 92.9 73.3969 92.9Z" fill="url(#paint20_radial_260_160)"/>
<path d="M78.4012 90.2001C76.4012 92.9001 72.6012 93.5001 69.9012 91.4001C67.3012 89.4001 66.7012 85.8001 68.5012 83.1001C66.5012 85.8001 67.0012 89.6001 69.7012 91.6001C72.4012 93.6001 76.2012 93.1001 78.2012 90.4001C78.3012 90.4001 78.4012 90.3001 78.4012 90.2001Z" fill="url(#paint21_radial_260_160)"/>
<path d="M70.9016 36.9999H81.0016C81.4016 36.9999 81.8016 36.5999 81.8016 36.1999C81.8016 35.7999 81.5016 35.3999 81.0016 35.3999H70.9016C70.5016 35.3999 70.1016 35.7999 70.1016 36.1999C70.1016 36.6999 70.4016 36.9999 70.9016 36.9999Z" fill="url(#paint22_linear_260_160)"/>
</g>
<defs>
<linearGradient id="paint0_linear_260_160" x1="72.5" y1="78.8239" x2="72.5" y2="68.5009" gradientUnits="userSpaceOnUse">
<stop offset="0.25" stop-color="#9AAA97"/>
<stop offset="0.55" stop-color="#65735B"/>
</linearGradient>
<linearGradient id="paint1_linear_260_160" x1="34.6106" y1="70.3951" x2="34.6106" y2="35.5521" gradientUnits="userSpaceOnUse">
<stop offset="0.08" stop-color="#D5E0D5"/>
<stop offset="0.29" stop-color="#9AAA97"/>
</linearGradient>
<linearGradient id="paint2_linear_260_160" x1="41.3367" y1="69.2369" x2="41.3367" y2="35.813" gradientUnits="userSpaceOnUse">
<stop offset="0.25" stop-color="#9AAA97"/>
<stop offset="0.55" stop-color="#65735B"/>
</linearGradient>
<linearGradient id="paint3_linear_260_160" x1="42.1146" y1="69.816" x2="54.4126" y2="69.816" gradientUnits="userSpaceOnUse">
<stop stop-color="#C3D2C3"/>
<stop offset="0.93" stop-color="#C3D2C3"/>
</linearGradient>
<linearGradient id="paint4_linear_260_160" x1="38.5161" y1="54.76" x2="38.5161" y2="0" gradientUnits="userSpaceOnUse">
<stop stop-color="#9AAA97"/>
<stop offset="0.93" stop-color="#E4EBE4"/>
</linearGradient>
<linearGradient id="paint5_linear_260_160" x1="2.482" y1="27.38" x2="79.029" y2="27.38" gradientUnits="userSpaceOnUse">
<stop stop-color="#C3D2C3"/>
<stop offset="0.93" stop-color="#C3D2C3"/>
</linearGradient>
<linearGradient id="paint6_linear_260_160" x1="76.2809" y1="52.0899" x2="76.2809" y2="2.66895" gradientUnits="userSpaceOnUse">
<stop stop-color="#E4EBE4"/>
<stop offset="0.93" stop-color="#9AAA97"/>
</linearGradient>
<linearGradient id="paint7_linear_260_160" x1="107.293" y1="70.395" x2="107.293" y2="30.984" gradientUnits="userSpaceOnUse">
<stop stop-color="#13544E"/>
<stop offset="1" stop-color="#0D3A35"/>
</linearGradient>
<linearGradient id="paint8_linear_260_160" x1="117.078" y1="70.395" x2="117.078" y2="27.451" gradientUnits="userSpaceOnUse">
<stop stop-color="#13544E"/>
<stop offset="1" stop-color="#0D3A35"/>
</linearGradient>
<linearGradient id="paint9_linear_260_160" x1="128.289" y1="70.3961" x2="128.289" y2="35.811" gradientUnits="userSpaceOnUse">
<stop stop-color="#13544E"/>
<stop offset="1" stop-color="#0D3A35"/>
</linearGradient>
<radialGradient id="paint10_radial_260_160" cx="0" cy="0" r="1" gradientUnits="userSpaceOnUse" gradientTransform="translate(64.1857 58.2759) rotate(13.3393) scale(26.7327 13.7887)">
<stop offset="0.68" stop-color="#EB9546"/>
<stop offset="0.83" stop-color="#D6843F"/>
<stop offset="1" stop-color="#BC6F37"/>
</radialGradient>
<radialGradient id="paint11_radial_260_160" cx="0" cy="0" r="1" gradientUnits="userSpaceOnUse" gradientTransform="translate(62.7784 71.8144) rotate(17.4873) scale(21.6704 12.3529)">
<stop offset="0.68" stop-color="#EB9546"/>
<stop offset="0.83" stop-color="#D6843F"/>
<stop offset="1" stop-color="#BC6F37"/>
</radialGradient>
<radialGradient id="paint12_radial_260_160" cx="0" cy="0" r="1" gradientUnits="userSpaceOnUse" gradientTransform="translate(65.7668 87.1165) rotate(14.2405) scale(18.2345 9.29903)">
<stop offset="0.68" stop-color="#EB9546"/>
<stop offset="0.83" stop-color="#D6843F"/>
<stop offset="1" stop-color="#BC6F37"/>
</radialGradient>
<radialGradient id="paint13_radial_260_160" cx="0" cy="0" r="1" gradientUnits="userSpaceOnUse" gradientTransform="translate(61.2974 48.4177) rotate(16.8087) scale(18.663 11.3013)">
<stop offset="0.68" stop-color="#EB9546"/>
<stop offset="0.83" stop-color="#D6843F"/>
<stop offset="1" stop-color="#BC6F37"/>
</radialGradient>
<linearGradient id="paint14_linear_260_160" x1="53.6901" y1="71.3739" x2="96.7631" y2="71.3739" gradientUnits="userSpaceOnUse">
<stop stop-color="#C3D2C3"/>
<stop offset="0.93" stop-color="#C3D2C3"/>
</linearGradient>
<linearGradient id="paint15_linear_260_160" x1="53.6901" y1="69.612" x2="96.7631" y2="69.612" gradientUnits="userSpaceOnUse">
<stop stop-color="#E4EBE4"/>
<stop offset="0.62" stop-color="#E6EDE6"/>
<stop offset="0.91" stop-color="#EDF3ED"/>
<stop offset="1" stop-color="#F2F7F2"/>
</linearGradient>
<radialGradient id="paint16_radial_260_160" cx="0" cy="0" r="1" gradientUnits="userSpaceOnUse" gradientTransform="translate(99.4747 86.598) scale(35.474)">
<stop offset="0.68" stop-color="#EB9546"/>
<stop offset="0.83" stop-color="#D6843F"/>
<stop offset="1" stop-color="#BC6F37"/>
</radialGradient>
<radialGradient id="paint17_radial_260_160" cx="0" cy="0" r="1" gradientUnits="userSpaceOnUse" gradientTransform="translate(92.4141 86.3526) rotate(29.4514) scale(13.2174 10.0452)">
<stop offset="0.21" stop-color="#BC6F37"/>
<stop offset="0.33" stop-color="#BC6F37" stop-opacity="0.89"/>
<stop offset="0.56" stop-color="#BC6F37" stop-opacity="0.6"/>
<stop offset="0.9" stop-color="#BC6F37" stop-opacity="0.15"/>
<stop offset="1" stop-color="#BC6F37" stop-opacity="0"/>
</radialGradient>
<radialGradient id="paint18_radial_260_160" cx="0" cy="0" r="1" gradientUnits="userSpaceOnUse" gradientTransform="translate(76.5486 88.9652) rotate(61.177) scale(12.083 12.083)">
<stop offset="0.43" stop-color="#E4EBE4"/>
<stop offset="0.49" stop-color="#E3EAE3" stop-opacity="0.91"/>
<stop offset="0.64" stop-color="#DFE8DF" stop-opacity="0.68"/>
<stop offset="0.84" stop-color="#DAE4DA" stop-opacity="0.32"/>
<stop offset="1" stop-color="#D5E0D5" stop-opacity="0"/>
</radialGradient>
<radialGradient id="paint19_radial_260_160" cx="0" cy="0" r="1" gradientUnits="userSpaceOnUse" gradientTransform="translate(78.1857 90.6667) rotate(61.177) scale(12.083 12.083)">
<stop offset="0.43" stop-color="#D5E0D5" stop-opacity="0"/>
<stop offset="0.56" stop-color="#D5E0D5" stop-opacity="0.01"/>
<stop offset="0.64" stop-color="#D6E1D6" stop-opacity="0.05"/>
<stop offset="0.71" stop-color="#D7E1D7" stop-opacity="0.11"/>
<stop offset="0.76" stop-color="#D8E2D8" stop-opacity="0.19"/>
<stop offset="0.82" stop-color="#DAE3DA" stop-opacity="0.31"/>
<stop offset="0.87" stop-color="#DCE5DC" stop-opacity="0.44"/>
<stop offset="0.91" stop-color="#DEE7DE" stop-opacity="0.61"/>
<stop offset="0.96" stop-color="#E1E9E1" stop-opacity="0.79"/>
<stop offset="1" stop-color="#E4EBE4"/>
</radialGradient>
<radialGradient id="paint20_radial_260_160" cx="0" cy="0" r="1" gradientUnits="userSpaceOnUse" gradientTransform="translate(78.9383 91.5138) rotate(61.177) scale(6.098 6.098)">
<stop offset="0.43" stop-color="#E4EBE4"/>
<stop offset="0.56" stop-color="#E4EBE4" stop-opacity="0.99"/>
<stop offset="0.64" stop-color="#E3EAE3" stop-opacity="0.95"/>
<stop offset="0.71" stop-color="#E2EAE2" stop-opacity="0.89"/>
<stop offset="0.76" stop-color="#E1E9E1" stop-opacity="0.81"/>
<stop offset="0.82" stop-color="#DFE8DF" stop-opacity="0.69"/>
<stop offset="0.87" stop-color="#DDE6DD" stop-opacity="0.56"/>
<stop offset="0.91" stop-color="#DBE4DB" stop-opacity="0.39"/>
<stop offset="0.96" stop-color="#D8E2D8" stop-opacity="0.21"/>
<stop offset="1" stop-color="#D5E0D5" stop-opacity="0"/>
</radialGradient>
<radialGradient id="paint21_radial_260_160" cx="0" cy="0" r="1" gradientUnits="userSpaceOnUse" gradientTransform="translate(866.583 416.677) scale(9.142 9.142)">
<stop offset="0.43" stop-color="#E4EBE4"/>
<stop offset="0.49" stop-color="#E3EAE3" stop-opacity="0.91"/>
<stop offset="0.64" stop-color="#DFE8DF" stop-opacity="0.68"/>
<stop offset="0.84" stop-color="#DAE4DA" stop-opacity="0.32"/>
<stop offset="1" stop-color="#D5E0D5" stop-opacity="0"/>
</radialGradient>
<linearGradient id="paint22_linear_260_160" x1="70.0986" y1="36.2099" x2="81.7536" y2="36.2099" gradientUnits="userSpaceOnUse">
<stop stop-color="#65735B"/>
<stop offset="0.93" stop-color="#9AAA97"/>
</linearGradient>
<clipPath id="clip0_260_160">
<rect width="145" height="130" fill="white"/>
</clipPath>
</defs>
</svg>
