<svg width="244" height="244" viewBox="0 0 244 244" fill="none" xmlns="http://www.w3.org/2000/svg">
<g clip-path="url(#clip0_4001_6361)">
<path d="M101.037 235.814L101.016 235.801C94.8268 232.208 89.8388 227.329 86.0311 221.13C82.4518 214.75 80.6562 207.775 80.6562 200.156C80.6562 190.375 82.8941 182.428 87.206 176.156C91.7184 169.593 98.7705 161.793 108.446 152.748C115.837 146.006 120.052 139.138 120.052 132.166V126.448C120.052 125.067 118.933 123.948 117.552 123.948H111.833C107.764 123.948 103.345 125.954 98.6843 129.353C93.9728 132.79 88.724 137.867 82.9428 144.504L82.9277 144.522C72.1377 157.144 59.1514 163.343 43.8438 163.343C36.225 163.343 29.2496 161.548 22.8706 157.969C16.6727 154.162 11.6817 149.171 7.87481 142.973C4.29562 136.595 2.5 129.619 2.5 122C2.5 114.369 4.30099 107.503 7.87464 101.344C11.6891 94.9233 16.6801 89.9427 22.8595 86.3547L22.8805 86.3423C29.2636 82.5524 36.2344 80.6562 43.8438 80.6562C58.9441 80.6562 71.8307 86.7546 82.6232 99.1761C88.3052 105.716 93.5362 110.722 98.3141 114.111C103.058 117.476 107.594 119.417 111.833 119.417H117.552C118.933 119.417 120.052 118.297 120.052 116.917V111.833C120.052 104.858 115.833 97.9875 108.436 91.2424C108.436 91.2422 108.435 91.242 108.435 91.2419C108.435 91.2416 108.435 91.2414 108.434 91.2412L101.135 84.5768C101.134 84.5757 101.133 84.5747 101.132 84.5736C96.0108 79.8617 91.2735 74.2054 86.9279 67.5858C82.7835 61.0664 80.6562 53.1894 80.6562 43.8438C80.6562 36.2128 82.4573 29.3464 86.031 23.1875C89.8455 16.767 94.8364 11.7865 101.016 8.19842L101.037 8.18609C107.42 4.39614 114.391 2.5 122 2.5C129.609 2.5 136.461 4.39576 142.616 8.16796L142.646 8.18603C149.071 12.0014 154.056 16.9945 157.646 23.1773C157.656 23.1944 157.666 23.2113 157.676 23.2282C161.448 29.3828 163.343 36.2344 163.343 43.8438C163.343 58.9441 157.245 71.8307 144.824 82.6232C138.284 88.3053 133.278 93.5362 129.89 98.3141C126.525 103.058 124.584 107.594 124.584 111.833V116.917C124.584 118.297 125.703 119.417 127.084 119.417H132.166C136.499 119.417 141.085 117.487 145.844 114.111C150.63 110.716 155.812 105.703 161.392 99.1583L161.407 99.14C171.752 86.7666 184.615 80.6562 200.157 80.6562C207.766 80.6562 214.617 82.552 220.771 86.3242C220.798 86.3405 220.825 86.3564 220.852 86.3717C227.251 89.9709 232.219 94.8454 235.801 101.016C235.811 101.033 235.822 101.05 235.832 101.067C239.598 107.211 241.5 114.166 241.5 122C241.5 129.609 239.604 136.581 235.814 142.963L235.801 142.984C232.213 149.164 227.233 154.154 220.812 157.969C214.653 161.543 207.787 163.343 200.157 163.343C190.633 163.343 182.564 161.022 175.837 156.475C169.051 151.743 161.356 144.791 152.75 135.556C146.007 128.163 139.139 123.948 132.166 123.948H127.084C125.703 123.948 124.584 125.067 124.584 126.448V132.166C124.584 136.781 126.482 141.518 129.89 146.321C133.301 151.131 138.336 156.167 144.898 161.438C157.22 171.337 163.343 184.172 163.343 200.156C163.343 207.766 161.447 214.736 157.658 221.12L157.646 221.141C154.052 227.331 149.174 232.207 142.984 235.801C142.974 235.807 142.965 235.813 142.955 235.819C142.947 235.823 142.94 235.828 142.933 235.832C136.789 239.598 129.834 241.5 122 241.5C114.391 241.5 107.42 239.604 101.037 235.814Z" stroke="#D9D9D9" stroke-width="5" stroke-linejoin="round"/>
</g>
<defs>
<clipPath id="clip0_4001_6361">
<rect width="244" height="244" fill="white"/>
</clipPath>
</defs>
</svg>
