<svg width="244" height="244" viewBox="0 0 244 244" fill="none" xmlns="http://www.w3.org/2000/svg">
<g clip-path="url(#clip0_4001_6350)">
<path d="M121.971 124.5C121.981 124.5 121.99 124.5 122 124.5C122.01 124.5 122.019 124.5 122.029 124.5C122.029 124.5 122.029 124.5 122.03 124.5C187.18 124.516 240.144 176.667 241.474 241.5H2.52564C3.85621 176.667 56.8211 124.516 121.97 124.5C121.97 124.5 121.971 124.5 121.971 124.5ZM122 119.5C121.99 119.5 121.981 119.5 121.971 119.5C121.971 119.5 121.97 119.5 121.97 119.5C56.8211 119.484 3.8562 67.3339 2.52563 2.50002L241.474 2.5C240.144 67.3339 187.18 119.484 122.03 119.5C122.029 119.5 122.029 119.5 122.029 119.5C122.019 119.5 122.01 119.5 122 119.5Z" stroke="#D9D9D9" stroke-width="5" stroke-linejoin="round"/>
</g>
<defs>
<clipPath id="clip0_4001_6350">
<rect width="244" height="244" fill="white"/>
</clipPath>
</defs>
</svg>
