<svg width="264" height="264" viewBox="0 0 264 264" fill="none" xmlns="http://www.w3.org/2000/svg">
<g clip-path="url(#clip0_2803_21508)">
<path d="M132 264C123.292 264 115.271 261.823 107.937 257.469C100.833 253.344 95.1042 247.73 90.75 240.625C86.625 233.292 84.5625 225.271 84.5625 216.562C84.5625 205.562 87.0833 196.396 92.1251 189.062C97.1667 181.73 104.958 173.135 115.5 163.281C123.292 156.177 127.188 149.416 127.188 143V136.813H121C113.896 136.813 104.156 143.917 91.7812 158.125C79.6355 172.334 64.8541 179.437 47.4375 179.437C38.7292 179.437 30.7083 177.375 23.375 173.25C16.2708 168.895 10.5417 163.167 6.1875 156.062C2.0625 148.73 0 140.708 0 132C0 123.292 2.0625 115.385 6.1875 108.281C10.5417 100.948 16.2708 95.2187 23.375 91.0937C30.7083 86.7396 38.7292 84.5625 47.4375 84.5625C64.625 84.5625 79.2916 91.552 91.4375 105.531C103.583 119.51 113.438 126.5 121 126.5H127.188V121C127.188 114.583 123.292 107.823 115.5 100.719L107.594 93.5C101.865 88.2292 96.5938 81.9271 91.7812 74.5937C86.9687 67.0312 84.5625 57.9792 84.5625 47.4375C84.5625 38.7292 86.625 30.8229 90.75 23.7188C95.1042 16.3854 100.833 10.6563 107.937 6.53124C115.271 2.17708 123.292 0 132 0C140.708 0 148.615 2.17708 155.719 6.53124C163.052 10.8854 168.782 16.6146 172.907 23.7188C177.26 30.8229 179.437 38.7292 179.437 47.4375C179.437 64.625 172.447 79.2916 158.469 91.4375C144.49 103.583 137.5 113.438 137.5 121V126.5H143C150.792 126.5 160.645 119.51 172.562 105.531C184.25 91.552 198.916 84.5625 216.563 84.5625C225.271 84.5625 233.177 86.7396 240.281 91.0937C247.615 95.2187 253.344 100.833 257.469 107.937C261.823 115.042 264 123.063 264 132C264 140.708 261.823 148.73 257.469 156.062C253.344 163.167 247.615 168.895 240.281 173.25C233.177 177.375 225.271 179.437 216.563 179.437C205.792 179.437 196.511 176.802 188.719 171.531C181.157 166.261 172.677 158.583 163.281 148.5C156.177 140.708 149.416 136.813 143 136.813H137.5V143C137.5 151.479 144.49 161.333 158.469 172.562C172.447 183.792 179.437 198.458 179.437 216.562C179.437 225.271 177.26 233.292 172.907 240.625C168.782 247.73 163.167 253.344 156.062 257.469C148.958 261.823 140.938 264 132 264Z" fill="#95DF00"/>
</g>
<defs>
<clipPath id="clip0_2803_21508">
<rect width="264" height="264" fill="white"/>
</clipPath>
</defs>
</svg>
