<svg width="264" height="264" viewBox="0 0 264 264" fill="none" xmlns="http://www.w3.org/2000/svg">
<g clip-path="url(#clip0_2803_21488)">
<path fill-rule="evenodd" clip-rule="evenodd" d="M66.9429 0H0.942863V66C0.942863 99.6098 26.0655 127.352 58.5565 131.472C25.61 135.171 5.57073e-06 163.123 2.88495e-06 197.058L0 263.058H66C99.6098 263.058 127.352 237.934 131.472 205.443C135.171 238.391 163.123 264 197.058 264H263.058V198C263.058 164.39 237.934 136.648 205.443 132.528C238.391 128.83 264 100.877 264 66.9429V0.942858L198 0.942855C164.39 0.942852 136.648 26.0655 132.528 58.5565C128.83 25.61 100.877 0 66.9429 0Z" fill="#95DF00"/>
</g>
<defs>
<clipPath id="clip0_2803_21488">
<rect width="264" height="264" fill="white"/>
</clipPath>
</defs>
</svg>
