<svg width="244" height="244" viewBox="0 0 244 244" fill="none" xmlns="http://www.w3.org/2000/svg">
<g clip-path="url(#clip0_2996_34806)">
<path d="M183 3.37143L241.5 3.37143V61.8714C241.5 91.9478 218.801 116.726 189.601 120.004C188.343 120.145 187.389 121.204 187.38 122.47C187.371 123.736 188.309 124.809 189.565 124.968C218.361 128.619 240.629 153.211 240.629 183V241.5H182.129C152.052 241.5 127.274 218.801 123.997 189.601C123.855 188.343 122.796 187.389 121.53 187.38C120.264 187.371 119.191 188.309 119.032 189.565C115.38 218.361 90.7886 240.629 61 240.629H2.5L2.5 182.129C2.50001 152.052 25.1993 127.274 54.3993 123.997C55.6574 123.855 56.6113 122.796 56.6204 121.53C56.6294 120.264 55.6908 119.191 54.4349 119.032C25.6386 115.38 3.37143 90.7886 3.37143 61V2.5H61.8714C91.9477 2.5 116.726 25.1993 120.004 54.3993C120.145 55.6573 121.204 56.6113 122.47 56.6204C123.736 56.6294 124.809 55.6908 124.968 54.4349C128.619 25.6386 153.211 3.37142 183 3.37143Z" stroke="#D9D9D9" stroke-width="5" stroke-linejoin="round"/>
</g>
<defs>
<clipPath id="clip0_2996_34806">
<rect width="244" height="244" fill="white"/>
</clipPath>
</defs>
</svg>
