<svg width="244" height="244" viewBox="0 0 244 244" fill="none" xmlns="http://www.w3.org/2000/svg">
<g clip-path="url(#clip0_4001_6315)">
<path d="M155.305 22.1583L155.306 22.1586C162.944 35.1761 176.867 43.2149 191.959 43.3206L193.079 43.3285C221.977 43.5308 239.994 74.738 225.72 99.865L225.167 100.838L227.238 102.014L225.167 100.838C217.712 113.961 217.712 130.039 225.167 143.162L225.167 143.163L225.72 144.135C239.994 169.262 221.977 200.469 193.079 200.672L191.96 200.679L191.959 200.679C176.867 200.785 162.944 208.824 155.306 221.841L155.305 221.841L154.739 222.806C154.739 222.806 154.739 222.806 154.739 222.806C140.116 247.731 104.081 247.731 89.4569 222.806L88.8907 221.841L86.9625 222.972L88.8907 221.841C81.2529 208.824 67.3293 200.785 52.2369 200.679L52.2356 200.679L51.118 200.672C22.2209 200.469 4.20343 169.263 18.4762 144.135C18.4763 144.135 18.4764 144.135 18.4765 144.135L19.0289 143.163L19.0292 143.162C26.4839 130.039 26.4839 113.961 19.0292 100.838L19.0291 100.838L18.4765 99.865C18.4765 99.865 18.4765 99.865 18.4765 99.8649C4.20321 74.738 22.2207 43.5308 51.1179 43.3285C51.1179 43.3285 51.1179 43.3285 51.1179 43.3285L52.2367 43.3206H52.2368C67.3294 43.2149 81.2529 35.1761 88.8907 22.1585L89.4569 21.1935C104.081 -3.7312 140.116 -3.7311 154.739 21.1934L155.305 22.1583Z" stroke="#D9D9D9" stroke-width="5"/>
</g>
<defs>
<clipPath id="clip0_4001_6315">
<rect width="244" height="244" fill="white"/>
</clipPath>
</defs>
</svg>
