<svg width="264" height="264" viewBox="0 0 264 264" fill="none" xmlns="http://www.w3.org/2000/svg">
<g clip-path="url(#clip0_2803_21498)">
<path d="M94.4563 21.5618C111.324 -7.18727 152.889 -7.18726 169.756 21.5618L170.368 22.6059C178.151 35.8688 192.336 44.059 207.712 44.1667L208.924 44.1751C242.256 44.4085 263.038 80.4042 246.573 109.387L245.975 110.439C238.38 123.81 238.38 140.191 245.975 153.561L246.573 154.613C263.038 183.596 242.256 219.591 208.924 219.825L207.712 219.833C192.336 219.941 178.151 228.132 170.368 241.394L169.756 242.438C152.889 271.187 111.324 271.187 94.4563 242.438L93.8437 241.394C86.0621 228.132 71.8761 219.941 56.4995 219.833L55.2889 219.825C21.9576 219.591 1.17549 183.596 17.6389 154.613L18.2369 153.561C25.832 140.191 25.832 123.81 18.2369 110.439L17.6389 109.387C1.17549 80.4042 21.9576 44.4085 55.2889 44.1751L56.4995 44.1667C71.8763 44.059 86.0621 35.8688 93.8437 22.6059L94.4563 21.5618Z" fill="#95DF00"/>
</g>
<defs>
<clipPath id="clip0_2803_21498">
<rect width="264" height="264" fill="white"/>
</clipPath>
</defs>
</svg>
