<svg width="76" height="61" viewBox="0 0 76 61" fill="none" xmlns="http://www.w3.org/2000/svg">
<path fill-rule="evenodd" clip-rule="evenodd" d="M57.8408 27.8336C57.8408 27.3595 58.1371 26.8262 58.9075 26.8262C59.5593 26.8262 59.9149 27.3002 59.9742 27.8336C59.9742 28.3669 59.5593 28.841 58.9075 28.841C58.1371 28.841 57.8408 28.3077 57.8408 27.8336ZM59.6779 27.8336C59.6779 27.3595 59.3816 27.0632 58.9075 27.0632C58.4334 27.0632 58.0779 27.3595 58.0779 27.8336C58.0779 28.2484 58.4334 28.604 58.9075 28.604C59.3816 28.604 59.6779 28.3077 59.6779 27.8336ZM58.6704 27.9521H58.8482L59.0853 28.3669H59.3816L59.0853 27.8928C59.263 27.8928 59.3816 27.7743 59.3816 27.5965C59.3816 27.3595 59.263 27.241 59.026 27.241H58.3742V28.3669H58.6704V27.9521ZM59.1445 27.5965C59.1445 27.478 59.026 27.478 58.9075 27.478V27.4188H58.6705V27.7151H58.9667C59.0853 27.7151 59.1445 27.7151 59.1445 27.5965Z" fill="white"/>
<path d="M25.3667 29.1367H26.6111V34.7663H25.426L25.3667 29.1367Z" fill="white"/>
<path d="M25.3667 26.8848H26.6111V28.6625H25.3667V26.8848Z" fill="white"/>
<path d="M53.4556 26.8262H54.7V34.7077H53.5148L53.4556 26.8262Z" fill="white"/>
<path d="M55.5297 26.8262H56.7741V34.7077H55.5889L55.5297 26.8262Z" fill="white"/>
<path fill-rule="evenodd" clip-rule="evenodd" d="M16.063 29.1367H22.8185C23.9445 29.1367 24.3 30.0256 24.2408 30.4997C24.2408 31.033 24.0037 31.5071 23.7074 31.6256C24.2408 31.8626 24.6556 32.5145 24.5963 33.1071C24.5371 34.5886 23.0556 34.7071 22.463 34.7071H16.063V29.1367ZM22.3445 33.8775C22.8185 33.8775 23.2334 33.5219 23.2334 33.0478C23.2334 32.5738 22.8185 32.1589 22.3445 32.1589H17.2482V33.8182L22.3445 33.8775ZM22.9371 30.6775C22.9371 31.0923 22.5815 31.3886 22.1667 31.3886L17.2482 31.3293V29.9663H22.1667C22.5815 29.9663 22.9371 30.2626 22.9371 30.6775Z" fill="white"/>
<path d="M46.9371 29.1374C46.463 29.1374 45.4556 29.3744 45.3964 30.3226C45.3964 31.1522 45.8704 31.567 46.1075 31.6263C45.7519 31.8041 45.3964 32.4559 45.3964 32.9892C45.3964 33.5818 45.6334 34.7078 47.5297 34.7078H52.7445V33.8781H47.7075C47.2334 33.8781 46.8186 33.5226 46.8186 33.0485C46.8186 32.5744 47.2334 32.1596 47.7075 32.1596H52.5075V31.33H47.589C47.1741 31.33 46.8186 31.0337 46.8186 30.6189C46.8186 30.2041 47.1741 29.9078 47.589 29.9078H52.7445V29.0781L46.9371 29.1374Z" fill="white"/>
<path d="M43.2038 30.8559H44.4482C44.4482 29.4929 43.7963 29.0781 42.0778 29.0781H38.7001C37.9297 29.0781 36.626 29.4337 36.626 30.5596C36.626 31.6855 37.1001 32.1596 38.463 32.1596H42.4926C42.9667 32.1596 43.4408 32.4559 43.4408 32.9892C43.4408 33.5226 43.1445 33.8781 42.3149 33.8781H39.1149C38.7001 33.8781 37.8704 33.8189 37.8704 32.9892H36.626C36.626 33.7003 36.7445 34.767 38.6408 34.767H42.6112C43.3815 34.767 44.6852 34.4115 44.6852 32.9892C44.6852 31.567 43.5001 31.3892 42.7889 31.3892H38.7593C38.1075 31.3892 37.8704 30.9744 37.8704 30.6781C37.8704 30.3818 38.1075 29.967 38.7593 29.967H42.2556C42.8482 29.967 43.2038 30.2041 43.2038 30.8559Z" fill="white"/>
<path d="M34.4926 30.8559H35.7371C35.7371 29.4929 35.0852 29.0781 33.3667 29.0781H29.9889C29.2186 29.0781 27.9149 29.4337 27.9149 30.5596C27.9149 31.6855 28.3889 32.1596 29.7519 32.1596H33.7815C34.2556 32.1596 34.7297 32.4559 34.7297 32.9892C34.7297 33.5226 34.4334 33.8781 33.6037 33.8781H30.4037C29.9889 33.8781 29.1593 33.8189 29.1593 32.9892H27.8556C27.8556 33.7003 27.9741 34.767 29.8704 34.767H33.8408C34.6111 34.767 35.9149 34.4115 35.9149 32.9892C35.9149 31.567 34.7297 31.3892 34.0186 31.3892H29.9889C29.3371 31.3892 29.1 30.9744 29.1 30.6781C29.1 30.3818 29.3371 29.967 29.9889 29.967H33.4852C34.1371 29.967 34.4926 30.2041 34.4926 30.8559Z" fill="white"/>
<path fill-rule="evenodd" clip-rule="evenodd" d="M53.1592 44.7815C55.0555 44.7815 54.2852 43.063 53.9296 42.4704C53.3963 41.6408 50.7889 37.0186 50.7889 37.0186H22.4629C22.4629 37.0186 19.8555 41.5815 19.3222 42.4704C18.9666 43.063 18.2555 44.7223 20.1518 44.7223L53.1592 44.7815Z" fill="#EA2227"/>
<path fill-rule="evenodd" clip-rule="evenodd" d="M27.8353 26.9335H45.0205C45.0205 26.9335 40.6946 19.2298 39.6872 17.5112C38.739 15.9112 38.2057 15.1409 36.3687 15.1409C34.5316 15.0816 34.0576 15.852 33.0501 17.5112C32.1613 19.1112 27.8353 26.9335 27.8353 26.9335Z" fill="#EA2227"/>
</svg>
