<svg width="144" height="61" viewBox="0 0 144 61" fill="none" xmlns="http://www.w3.org/2000/svg">
<path d="M34.8989 38.797H36.992V44.4993H40.6281V46.324H34.8989V38.797ZM42.7882 42.5806V42.5538C42.7882 40.3936 44.5325 38.636 46.8536 38.636C49.1748 38.636 50.8922 40.3668 50.8922 42.527V42.5538C50.8922 44.714 49.148 46.4716 46.8268 46.4716C44.5056 46.4716 42.7882 44.7408 42.7882 42.5806ZM48.7723 42.5806V42.5538C48.7723 41.467 47.9941 40.5278 46.8402 40.5278C45.6998 40.5278 44.935 41.4536 44.935 42.5404V42.5672C44.935 43.654 45.7132 44.5932 46.8536 44.5932C48.0075 44.5932 48.7723 43.6674 48.7723 42.5806ZM53.4549 43.0234V38.797H55.5748V42.9832C55.5748 44.0699 56.1249 44.5798 56.9568 44.5798C57.7886 44.5798 58.3387 44.0834 58.3387 43.0368V38.797H60.4587V42.9697C60.4587 45.3983 59.0767 46.4582 56.9299 46.4582C54.7966 46.4582 53.4549 45.3848 53.4549 43.0234ZM63.652 38.797H66.5501C69.2335 38.797 70.8033 40.34 70.8033 42.5136V42.5404C70.8033 44.714 69.2201 46.324 66.5098 46.324H63.652V38.797ZM66.5903 44.4725C67.8381 44.4725 68.67 43.7882 68.67 42.5672V42.5404C68.67 41.3328 67.8381 40.6351 66.5903 40.6351H65.745V44.459H66.5903V44.4725ZM73.8356 38.797H79.8599V40.6217H75.9153V41.9098H79.4842V43.6406H75.9153V46.324H73.8356V38.797ZM82.758 38.797H84.8377V44.4993H88.4872V46.324H82.758V38.797ZM93.9346 38.7433H95.9471L99.1538 46.324H96.9132L96.3631 44.9823H93.465L92.9283 46.324H90.7413L93.9346 38.7433ZM95.7727 43.3588L94.9408 41.2255L94.0956 43.3588H95.7727ZM101.837 38.797H105.393C106.547 38.797 107.338 39.0922 107.848 39.6154C108.291 40.0448 108.519 40.6217 108.519 41.3731V41.3999C108.519 42.5538 107.902 43.3186 106.976 43.7077L108.774 46.3375H106.359L104.843 44.0565H103.93V46.3375H101.837V38.797ZM105.299 42.4062C106.01 42.4062 106.413 42.0574 106.413 41.5207V41.4938C106.413 40.9035 105.983 40.6083 105.286 40.6083H103.917V42.4062H105.299ZM111.524 38.797H117.576V40.5681H113.591V41.7085H117.2V43.3588H113.591V44.553H117.629V46.324H111.524V38.797ZM30.3371 43.4662C30.0419 44.1236 29.4247 44.5932 28.6197 44.5932C27.4792 44.5932 26.701 43.6406 26.701 42.5672V42.5404C26.701 41.4536 27.4658 40.5278 28.6063 40.5278C29.465 40.5278 30.1224 41.0511 30.3907 41.7756H32.5912C32.2423 39.9777 30.6591 38.6494 28.6197 38.6494C26.2985 38.6494 24.5543 40.4071 24.5543 42.5672V42.5941C24.5543 44.7542 26.2717 46.485 28.5928 46.485C30.5786 46.485 32.135 45.197 32.5375 43.4796L30.3371 43.4662Z" fill="white"/>
<path d="M104.628 34.0742C104.91 33.1082 104.802 32.2226 104.333 31.5652C103.903 30.9614 103.179 30.6126 102.307 30.5723L85.7903 30.3576C85.683 30.3576 85.589 30.304 85.5354 30.2235C85.4817 30.143 85.4683 30.0356 85.4951 29.9283C85.5488 29.7673 85.7098 29.6465 85.8842 29.6331L102.548 29.4184C104.521 29.3245 106.667 27.7279 107.419 25.769L108.371 23.2868C108.412 23.1794 108.425 23.0721 108.398 22.9648C107.325 18.1077 102.991 14.4851 97.8121 14.4851C93.0356 14.4851 88.9836 17.5711 87.5345 21.8511C86.5953 21.1535 85.4012 20.7778 84.1131 20.8985C81.8188 21.1266 79.9806 22.9648 79.7526 25.2591C79.6989 25.8495 79.7391 26.4264 79.8733 26.9631C76.1299 27.0704 73.1379 30.1296 73.1379 33.8998C73.1379 34.2352 73.1647 34.5706 73.205 34.9061C73.2318 35.0671 73.366 35.1878 73.527 35.1878H104.011C104.185 35.1878 104.346 35.0671 104.4 34.8927L104.628 34.0742Z" fill="#F38020"/>
<path d="M109.888 23.488C109.74 23.488 109.579 23.488 109.431 23.5015C109.324 23.5015 109.23 23.582 109.19 23.6893L108.546 25.93C108.264 26.896 108.371 27.7815 108.841 28.439C109.27 29.0428 109.995 29.3916 110.867 29.4319L114.382 29.6465C114.49 29.6465 114.584 29.7002 114.637 29.7807C114.691 29.8612 114.704 29.982 114.678 30.0759C114.624 30.2369 114.463 30.3576 114.288 30.3711L110.626 30.5857C108.64 30.6797 106.506 32.2763 105.755 34.2352L105.487 34.9195C105.433 35.0537 105.527 35.1878 105.675 35.1878H118.26C118.408 35.1878 118.542 35.0939 118.582 34.9463C118.797 34.1681 118.917 33.3497 118.917 32.5044C118.917 27.54 114.865 23.488 109.888 23.488Z" fill="#FAAE40"/>
</svg>
