<svg width="40" height="41" viewBox="0 0 40 41" fill="none" xmlns="http://www.w3.org/2000/svg">
<path d="M12.7152 29.166V33.9993C12.7107 34.1976 12.7464 34.3947 12.8201 34.5787C12.8939 34.7628 13.0042 34.93 13.1444 35.0702C13.2846 35.2104 13.4518 35.3207 13.6359 35.3945C13.8199 35.4682 14.017 35.5039 14.2152 35.4993H25.5652C25.7635 35.5039 25.9606 35.4682 26.1446 35.3945C26.3287 35.3207 26.4958 35.2104 26.636 35.0702C26.7762 34.93 26.8866 34.7628 26.9603 34.5787C27.0341 34.3947 27.0698 34.1976 27.0652 33.9993V31.8493H30.7152C30.9135 31.8539 31.1106 31.8182 31.2946 31.7445C31.4787 31.6707 31.6458 31.5604 31.786 31.4202C31.9263 31.28 32.0366 31.1128 32.1103 30.9287C32.1841 30.7447 32.2198 30.5476 32.2152 30.3493V24.7827H34.1486C34.9986 24.7827 35.2152 24.1493 34.7819 23.4993L31.9986 18.4993V16.8327C32.0559 14.7289 31.5086 12.6528 30.4214 10.8508C29.3343 9.0487 27.753 7.59635 25.8652 6.66602" stroke="white" stroke-width="2" stroke-linecap="round" stroke-linejoin="round"/>
<path d="M14.1668 18.8329C14.9023 18.8328 15.6214 18.6154 16.2338 18.208C16.8462 17.8007 17.3247 17.2215 17.6091 16.5432C17.8935 15.8649 17.9712 15.1177 17.8325 14.3954C17.6938 13.6731 17.3448 13.0078 16.8293 12.4831C16.3138 11.9585 15.6549 11.5978 14.9351 11.4463C14.2154 11.2948 13.4669 11.3593 12.7837 11.6316C12.1005 11.904 11.5129 12.3721 11.0948 12.9772C10.6767 13.5823 10.4466 14.2975 10.4335 15.0329C10.4246 15.5287 10.5146 16.0214 10.6983 16.482C10.8819 16.9427 11.1555 17.3622 11.5031 17.7159C11.8506 18.0697 12.2652 18.3507 12.7225 18.5425C13.1799 18.7342 13.6709 18.833 14.1668 18.8329V18.8329Z" stroke="white" stroke-width="2" stroke-linecap="round" stroke-linejoin="round"/>
<path d="M20.8167 15.7011V14.3844L23.3333 12.2511C22.8843 10.7844 22.0899 9.44692 21.0167 8.35105L17.9333 9.51772C17.6354 9.31775 17.3235 9.13951 17 8.98438L16.45 5.78438C14.9519 5.4013 13.3815 5.4013 11.8833 5.78438L11.3333 8.98438C11.0098 9.13951 10.6979 9.31775 10.4 9.51772L7.31667 8.35105C6.24347 9.44692 5.44899 10.7844 5 12.2511L7.51667 14.3844C7.46665 14.8163 7.46665 15.2525 7.51667 15.6844L5 17.8011C5.44896 19.2726 6.24326 20.6155 7.31667 21.7177L10.4 20.5011C10.7017 20.6949 11.0132 20.8729 11.3333 21.0344L11.8833 24.2177C13.3815 24.6008 14.9519 24.6008 16.45 24.2177L17 21.0344C17.3201 20.8729 17.6317 20.6949 17.9333 20.5011L21.0167 21.6677C22.0833 20.5798 22.8772 19.2548 23.3333 17.8011L20.8167 15.6844V15.7011Z" stroke="white" stroke-width="2" stroke-linecap="round" stroke-linejoin="round"/>
</svg>
