<svg width="40" height="41" viewBox="0 0 40 41" fill="none" xmlns="http://www.w3.org/2000/svg">
<path d="M22.7167 5.5H9.83333C8.55145 5.5 7.32208 6.00922 6.41565 6.91565C5.50922 7.82208 5 9.05145 5 10.3333V18.5167C5.00441 19.7691 5.50505 20.9688 6.39224 21.8529C7.27943 22.7369 8.48086 23.2333 9.73333 23.2333V26.8C9.73355 27.0471 9.80698 27.2885 9.94435 27.4939C10.0817 27.6992 10.2769 27.8593 10.5051 27.9538C10.7334 28.0483 10.9846 28.0731 11.2269 28.0249C11.4692 27.9768 11.6919 27.8579 11.8667 27.6833L16.2833 23.2333H22.7167C23.9985 23.2333 25.2279 22.7241 26.1343 21.8177C27.0408 20.9113 27.55 19.6819 27.55 18.4V10.3333C27.55 9.05145 27.0408 7.82208 26.1343 6.91565C25.2279 6.00922 23.9985 5.5 22.7167 5.5Z" stroke="white" stroke-width="2" stroke-linecap="round" stroke-linejoin="round"/>
<path d="M32.5001 12.9512C32.8326 12.9511 33.1619 13.0174 33.4685 13.1461C33.7751 13.2749 34.053 13.4635 34.2858 13.701C34.5186 13.9385 34.7017 14.22 34.8243 14.5291C34.947 14.8382 35.0067 15.1687 35.0001 15.5012V27.5178C35.0001 28.371 34.6612 29.1891 34.0579 29.7924C33.4547 30.3956 32.6365 30.7345 31.7834 30.7345H30.2667V34.3012C30.2665 34.5482 30.1931 34.7897 30.0557 34.9951C29.9184 35.2004 29.7232 35.3605 29.495 35.455C29.2667 35.5495 29.0155 35.5743 28.7732 35.5261C28.5309 35.478 28.3082 35.3591 28.1334 35.1845L23.7167 30.7345H16.6667" stroke="white" stroke-width="2" stroke-linecap="round" stroke-linejoin="round"/>
</svg>
