<svg id="Layer_1" data-name="Layer 1" xmlns="http://www.w3.org/2000/svg" viewBox="0 0 650 200"><defs><style>.cls-1{fill:#323e48;}.cls-2{fill:#ffcd00;}.cls-3{fill:#ff9e18;}.cls-4{fill:#00abc8;}.cls-5{fill:#3f2b56;}</style></defs><path class="cls-1" d="M28.71,108.81h.2a20.14,20.14,0,0,1,2-4.22,17.16,17.16,0,0,1,3.72-4.26,19.75,19.75,0,0,1,13.08-4.57A22.67,22.67,0,0,1,58,98a20.87,20.87,0,0,1,7.24,5.92,25.48,25.48,0,0,1,4.28,8.63A37.7,37.7,0,0,1,71,122.86a39.62,39.62,0,0,1-1.41,10.84,23.87,23.87,0,0,1-4.28,8.48A19.77,19.77,0,0,1,58,147.75a24.69,24.69,0,0,1-10.31,2,23,23,0,0,1-11.47-2.81,16.43,16.43,0,0,1-7.35-9.13h-.2V167H25V97h3.71Zm19,37.63a18.67,18.67,0,0,0,8.7-1.9,17.27,17.27,0,0,0,6-5.12A22.27,22.27,0,0,0,66,131.94,35.3,35.3,0,0,0,66,114.18a23.53,23.53,0,0,0-3.42-7.63,17.62,17.62,0,0,0-6-5.42,18,18,0,0,0-8.91-2.06,17.77,17.77,0,0,0-8.75,2,17,17,0,0,0-5.89,5.32A22.35,22.35,0,0,0,29.82,114a38.55,38.55,0,0,0-1,8.88,42.18,42.18,0,0,0,.91,8.88,21.45,21.45,0,0,0,3.07,7.53,15.77,15.77,0,0,0,5.83,5.22A19.28,19.28,0,0,0,47.73,146.44Z"/><path class="cls-1" d="M81.3,123.26v.6a30.3,30.3,0,0,0,1.21,8.63,21.84,21.84,0,0,0,3.57,7.23A17.13,17.13,0,0,0,92,144.64a18.21,18.21,0,0,0,8.3,1.8q7.75,0,12.28-4.06a21.28,21.28,0,0,0,6.24-11.29h3.81q-1.71,9-7.38,13.85t-15,4.81a22.82,22.82,0,0,1-10-2.05,20.4,20.4,0,0,1-7.12-5.62,24,24,0,0,1-4.27-8.43,38,38,0,0,1-1.4-10.49,36.79,36.79,0,0,1,1.45-10.39A26.14,26.14,0,0,1,83.31,104a21.56,21.56,0,0,1,7.28-6,24.2,24.2,0,0,1,19.87-.25,20.09,20.09,0,0,1,7,5.47,24.16,24.16,0,0,1,4.27,8,32,32,0,0,1,1.45,9.78c0,.34,0,.72-.05,1.16s0,.78,0,1.05ZM119.24,120a30.87,30.87,0,0,0-1.41-8,20,20,0,0,0-3.57-6.63,17.89,17.89,0,0,0-5.74-4.56,16.78,16.78,0,0,0-7.7-1.71,18.07,18.07,0,0,0-8.15,1.76,18.44,18.44,0,0,0-5.93,4.61A20.83,20.83,0,0,0,83,112.12,31.25,31.25,0,0,0,81.4,120Z"/><path class="cls-1" d="M135.8,108.41h.3a12.51,12.51,0,0,1,2.56-4.72,18.3,18.3,0,0,1,4.51-3.82,22.76,22.76,0,0,1,5.93-2.45,24.1,24.1,0,0,1,6.77-.76v3.82a17.94,17.94,0,0,0-6.87.6,16.63,16.63,0,0,0-7.38,4.42,33.46,33.46,0,0,0-2.46,2.91,14.07,14.07,0,0,0-1.76,3.11,19.86,19.86,0,0,0-1.1,3.81,32.31,32.31,0,0,0-.5,5v28.2H132V97h3.82Z"/><path class="cls-1" d="M160.89,100.28V97h9.23V86.33a11.08,11.08,0,0,1,.9-4.67,8.41,8.41,0,0,1,2.46-3.16,10.8,10.8,0,0,1,3.62-1.81,15.47,15.47,0,0,1,4.36-.6,27.54,27.54,0,0,1,4.52.5V79.9a27.54,27.54,0,0,0-4.52-.5,9.4,9.4,0,0,0-5.37,1.46q-2.16,1.45-2.16,5.77V97h10.74v3.32H173.93v48.27h-3.81V100.28Z"/><path class="cls-1" d="M190.09,123.26v.6a30.3,30.3,0,0,0,1.21,8.63,21.84,21.84,0,0,0,3.57,7.23,17.13,17.13,0,0,0,5.94,4.92,18.21,18.21,0,0,0,8.3,1.8q7.75,0,12.28-4.06a21.28,21.28,0,0,0,6.24-11.29h3.81q-1.71,9-7.37,13.85t-15,4.81a22.74,22.74,0,0,1-10-2.05,20.35,20.35,0,0,1-7.13-5.62,24,24,0,0,1-4.27-8.43,38,38,0,0,1-1.4-10.49,36.79,36.79,0,0,1,1.45-10.39A26.14,26.14,0,0,1,192.1,104a21.56,21.56,0,0,1,7.28-6,22,22,0,0,1,10.28-2.26,21.81,21.81,0,0,1,9.59,2,20.09,20.09,0,0,1,7,5.47,24.16,24.16,0,0,1,4.27,8,32,32,0,0,1,1.45,9.78c0,.34,0,.72-.05,1.16s0,.78,0,1.05ZM228,120a30.87,30.87,0,0,0-1.41-8,19.64,19.64,0,0,0-3.57-6.63,17.89,17.89,0,0,0-5.74-4.56,16.78,16.78,0,0,0-7.7-1.71,18.07,18.07,0,0,0-8.15,1.76,18.44,18.44,0,0,0-5.93,4.61,20.83,20.83,0,0,0-3.73,6.68,31.25,31.25,0,0,0-1.61,7.83Z"/><path class="cls-1" d="M279.62,112.92a15.08,15.08,0,0,0-1.76-6,13.45,13.45,0,0,0-3.77-4.32,17,17,0,0,0-5.36-2.6,23,23,0,0,0-6.58-.91,18,18,0,0,0-8.53,2,18.72,18.72,0,0,0-6.22,5.22,23.5,23.5,0,0,0-3.81,7.42,28.58,28.58,0,0,0-1.31,8.59,36.17,36.17,0,0,0,1.21,9.63,22,22,0,0,0,3.71,7.68,17.33,17.33,0,0,0,6.22,5.07,19.84,19.84,0,0,0,8.73,1.8,17.83,17.83,0,0,0,12.1-4.51,17.22,17.22,0,0,0,3.86-5.07,20.78,20.78,0,0,0,2-6.48h3.81a24.11,24.11,0,0,1-2.51,8.23,20.18,20.18,0,0,1-4.82,6.08,20.81,20.81,0,0,1-6.62,3.76,23.44,23.44,0,0,1-7.83,1.3,23.79,23.79,0,0,1-10.79-2.25,20.62,20.62,0,0,1-7.32-6.08,25.65,25.65,0,0,1-4.22-8.78,39.39,39.39,0,0,1-1.35-10.38A33,33,0,0,1,240,112a25.06,25.06,0,0,1,4.57-8.43A21.59,21.59,0,0,1,252,97.87a23.17,23.17,0,0,1,10.13-2.11,28.48,28.48,0,0,1,7.88,1,20.39,20.39,0,0,1,6.52,3.17,16.37,16.37,0,0,1,4.67,5.36,19.15,19.15,0,0,1,2.21,7.58Z"/><path class="cls-1" d="M309.82,100.28H298.58v36a13.83,13.83,0,0,0,.71,4.91,5.51,5.51,0,0,0,2.15,2.76,7.69,7.69,0,0,0,3.52,1.16,36,36,0,0,0,4.76.1v3.31a35.67,35.67,0,0,1-5.67-.05,11.34,11.34,0,0,1-4.86-1.51,8.8,8.8,0,0,1-3.37-3.76,14.23,14.23,0,0,1-1.05-6.92v-36h-9.53V97h9.53v-16h3.81V97h11.24Z"/><path class="cls-1" d="M328.64,135.65a8.23,8.23,0,0,0,2.46,2.71,10.51,10.51,0,0,0,3.46,1.56,16.56,16.56,0,0,0,4.07.5,15.59,15.59,0,0,0,3.16-.35,10.79,10.79,0,0,0,3-1.1,7,7,0,0,0,2.26-2,5.29,5.29,0,0,0,.9-3.16q0-3.21-4.27-4.82a85.21,85.21,0,0,0-11.89-3.21c-2.07-.47-4.1-1-6.07-1.66a20.39,20.39,0,0,1-5.27-2.51,12,12,0,0,1-3.71-3.91,11.06,11.06,0,0,1-1.41-5.77,15.55,15.55,0,0,1,2-8.23,14.43,14.43,0,0,1,5.17-5.07A22.58,22.58,0,0,1,329.69,96a44.75,44.75,0,0,1,8.23-.75,41.49,41.49,0,0,1,8.18.8,21.78,21.78,0,0,1,7.08,2.71,16.34,16.34,0,0,1,5.17,5.07,17.09,17.09,0,0,1,2.46,8H347.26q-.3-4.11-3.11-5.57a14.28,14.28,0,0,0-6.63-1.46,24.79,24.79,0,0,0-2.61.15,8.52,8.52,0,0,0-2.56.66,5.2,5.2,0,0,0-2,1.45,3.83,3.83,0,0,0-.81,2.56,3.9,3.9,0,0,0,1.41,3.11,10.82,10.82,0,0,0,3.66,2,46.23,46.23,0,0,0,5.17,1.35q2.91.6,5.92,1.31c2.07.47,4.1,1,6.07,1.7a20.05,20.05,0,0,1,5.27,2.66,13,13,0,0,1,3.72,4.12,12.14,12.14,0,0,1,1.4,6.07,16.57,16.57,0,0,1-2.06,8.58,16.37,16.37,0,0,1-5.37,5.57,21.86,21.86,0,0,1-7.57,3,44.12,44.12,0,0,1-8.68.85,43.18,43.18,0,0,1-8.84-.9,23.16,23.16,0,0,1-7.67-3,17,17,0,0,1-5.52-5.57,17.39,17.39,0,0,1-2.36-8.68h13.55A7.74,7.74,0,0,0,328.64,135.65Z"/><path class="cls-1" d="M383.79,136.11q3.21,3.1,9.23,3.11a12.71,12.71,0,0,0,7.43-2.16,9,9,0,0,0,3.81-4.57h12.55q-3,9.33-9.24,13.35a27.15,27.15,0,0,1-15.05,4,29.74,29.74,0,0,1-11-1.95,23,23,0,0,1-8.33-5.57,25.09,25.09,0,0,1-5.27-8.63,31.58,31.58,0,0,1-1.86-11,30.28,30.28,0,0,1,1.91-10.84,25.09,25.09,0,0,1,13.8-14.45,26.77,26.77,0,0,1,10.79-2.11,24.64,24.64,0,0,1,11.54,2.56,23,23,0,0,1,8.08,6.87,28.32,28.32,0,0,1,4.57,9.84,36.73,36.73,0,0,1,1,11.54H380.27Q380.57,133,383.79,136.11Zm16.1-27.3c-1.7-1.88-4.3-2.81-7.77-2.81a12.36,12.36,0,0,0-5.67,1.15,10.82,10.82,0,0,0-3.62,2.86,10.4,10.4,0,0,0-1.9,3.61,16.58,16.58,0,0,0-.66,3.42h23.19Q402.46,111.61,399.89,108.81Z"/><path class="cls-1" d="M439.69,96.66v9.64h.2a17.4,17.4,0,0,1,2.71-4.47,17.63,17.63,0,0,1,3.91-3.51,19.34,19.34,0,0,1,4.72-2.26,17.16,17.16,0,0,1,5.22-.8,11.32,11.32,0,0,1,3.11.5V109c-.67-.14-1.47-.25-2.41-.35a25.59,25.59,0,0,0-2.71-.15,15.14,15.14,0,0,0-6.62,1.3,11.47,11.47,0,0,0-4.37,3.56,14.47,14.47,0,0,0-2.36,5.27,28.61,28.61,0,0,0-.7,6.53v23.38H426.14V96.66Z"/><path class="cls-1" d="M482,148.55,464.28,96.66h15l10.94,35.43h.2l10.94-35.43h14.15L497.9,148.55Z"/><path class="cls-1" d="M534.63,136.11q3.21,3.1,9.23,3.11a12.71,12.71,0,0,0,7.43-2.16,9,9,0,0,0,3.81-4.57h12.55q-3,9.33-9.24,13.35a27.15,27.15,0,0,1-15,4,29.74,29.74,0,0,1-11-1.95,23,23,0,0,1-8.33-5.57,25.09,25.09,0,0,1-5.27-8.63,31.58,31.58,0,0,1-1.86-11,30.28,30.28,0,0,1,1.91-10.84,25.09,25.09,0,0,1,13.8-14.45,26.77,26.77,0,0,1,10.79-2.11,24.64,24.64,0,0,1,11.54,2.56,23,23,0,0,1,8.08,6.87,28.32,28.32,0,0,1,4.57,9.84,36.73,36.73,0,0,1,1,11.54H531.11Q531.41,133,534.63,136.11Zm16.1-27.3c-1.7-1.88-4.3-2.81-7.77-2.81a12.36,12.36,0,0,0-5.67,1.15,10.82,10.82,0,0,0-3.62,2.86,10.4,10.4,0,0,0-1.9,3.61,16.58,16.58,0,0,0-.66,3.42H554.3Q553.3,111.61,550.73,108.81Z"/><circle class="cls-2" cx="518.92" cy="64.9" r="14.87"/><circle class="cls-2" cx="541.72" cy="39.62" r="12.39"/><circle class="cls-3" cx="572.95" cy="38.14" r="11.15"/><circle class="cls-3" cx="599.72" cy="50.53" r="9.91"/><circle class="cls-4" cx="617.56" cy="98.12" r="7.44"/><circle class="cls-5" cx="608.31" cy="122.78" r="6.2"/><circle class="cls-5" cx="590.3" cy="138.27" r="4.96"/><circle class="cls-4" cx="614.59" cy="72.34" r="8.67"/></svg>